<svg xmlns="http://www.w3.org/2000/svg" viewBox="0 0 100 100">
  <defs>
    <linearGradient id="ballShade" cx="30%" cy="30%" r="50%">
      <stop offset="0%" style="stop-color:#fff"/>
      <stop offset="100%" style="stop-color:#e8e8e8"/>
    </linearGradient>
    <filter id="ballShadow" x="-30%" y="-30%" width="160%" height="160%">
      <feDropShadow dx="0" dy="8" stdDeviation="10" flood-color="#000" flood-opacity="0.45"/>
      <feDropShadow dx="0" dy="4" stdDeviation="4" flood-color="#000" flood-opacity="0.3"/>
    </filter>
  </defs>
  <!-- Ball base (white) -->
  <circle cx="50" cy="50" r="47" fill="url(#ballShade)" filter="url(#ballShadow)"/>
  <!-- Blue star panels (UCL style) -->
  <path d="M50 5 L62 22 L82 20 L68 38 L72 62 L50 52 L28 62 L32 38 L18 20 L38 22 Z" fill="#1e3a8a" stroke="#2563eb" stroke-width="0.5"/>
  <path d="M50 52 L72 62 L68 85 L50 92 L32 85 L28 62 Z" fill="#1e3a8a" stroke="#2563eb" stroke-width="0.5"/>
  <path d="M50 5 L50 52 L28 62 L32 38 L38 22 Z" fill="#1e3a8a" stroke="#2563eb" stroke-width="0.5"/>
  <path d="M50 52 L72 62 L68 38 L62 22 L50 5 Z" fill="#1e3a8a" stroke="#2563eb" stroke-width="0.5"/>
  <path d="M50 52 L32 85 L40 72 L60 72 L68 85 Z" fill="#1e3a8a" stroke="#2563eb" stroke-width="0.5"/>
  <path d="M50 52 L50 92 L32 85 Z" fill="#1e3a8a" stroke="#2563eb" stroke-width="0.5"/>
  <path d="M50 52 L68 85 L50 92 Z" fill="#1e3a8a" stroke="#2563eb" stroke-width="0.5"/>
</svg>
